<svg width="24" height="25" viewBox="0 0 24 25" fill="none" xmlns="http://www.w3.org/2000/svg">
<path d="M11.9944 22.5C9.26263 22.5 8.94059 22.4856 7.87451 22.439C7.04317 22.4117 6.22258 22.243 5.44808 21.94C4.10806 21.4193 3.04846 20.3608 2.52748 19.0225C2.23576 18.2463 2.07842 17.4262 2.06219 16.5974C2 15.535 2 15.1868 2 12.48C2 9.7444 2.01444 9.42504 2.06219 8.36605C2.07878 7.53828 2.23611 6.71935 2.52748 5.94422C3.0479 4.60416 4.10922 3.54477 5.45142 3.02562C6.22726 2.73309 7.04758 2.57556 7.87674 2.55988C8.93726 2.5 9.28595 2.5 11.9944 2.5C14.7485 2.5 15.065 2.51442 16.1144 2.55988C16.9457 2.5757 17.7682 2.73321 18.5464 3.02562C19.8882 3.54536 20.9493 4.60454 21.4703 5.94422C21.7669 6.73064 21.9251 7.56238 21.9378 8.40264C22 9.46496 22 9.81204 22 12.5177C22 15.2234 21.9845 15.5783 21.9378 16.6284C21.9213 17.4581 21.7636 18.2789 21.4714 19.0558C20.9491 20.395 19.8879 21.4538 18.5464 21.9744C17.7693 22.2651 16.9485 22.4222 16.1188 22.439C15.0583 22.5 14.7107 22.5 11.9944 22.5ZM11.9567 4.25538C9.24042 4.25538 8.95836 4.26868 7.89783 4.31637C7.26484 4.32474 6.63796 4.44138 6.04442 4.66123C5.16797 4.99613 4.47443 5.68584 4.13548 6.55966C3.91362 7.15879 3.79679 7.79162 3.79012 8.43036C3.73126 9.50488 3.73126 9.78654 3.73126 12.48C3.73126 15.1414 3.74125 15.4641 3.79012 16.5319C3.80006 17.1642 3.91682 17.7903 4.13548 18.3838C4.47493 19.257 5.16834 19.9462 6.04442 20.2811C6.63755 20.5024 7.26469 20.6191 7.89783 20.626C8.97279 20.6881 9.25597 20.6881 11.9567 20.6881C14.6807 20.6881 14.9628 20.6748 16.0144 20.626C16.6479 20.6183 17.2752 20.5016 17.869 20.2811C18.7401 19.9433 19.4291 19.2557 19.7679 18.386C19.9893 17.7864 20.1062 17.1533 20.1133 16.5142H20.1255C20.1732 15.4541 20.1732 15.1713 20.1732 12.4623C20.1732 9.75327 20.161 9.46829 20.1133 8.40929C20.1033 7.77772 19.9865 7.15237 19.7679 6.55966C19.4299 5.6887 18.7408 4.99977 17.869 4.66123C17.2753 4.44028 16.6479 4.3236 16.0144 4.31637C14.9406 4.25538 14.6596 4.25538 11.9567 4.25538ZM11.9944 17.602C9.91781 17.6034 8.04488 16.3553 7.24915 14.44C6.45342 12.5246 6.89162 10.3192 8.35939 8.85225C9.82716 7.38533 12.0354 6.94585 13.9542 7.73878C15.873 8.53171 17.1245 10.4009 17.1249 12.4745C17.1219 15.3034 14.8274 17.5965 11.9944 17.602ZM11.9944 9.1456C10.1545 9.1456 8.66296 10.635 8.66296 12.4723C8.66296 14.3096 10.1545 15.799 11.9944 15.799C13.8344 15.799 15.3259 14.3096 15.3259 12.4723C15.3217 10.6368 13.8326 9.14987 11.9944 9.1456ZM17.3248 8.35496C16.6645 8.35251 16.1309 7.81669 16.1322 7.15736C16.1334 6.49804 16.669 5.96419 17.3293 5.96419C17.9895 5.96419 18.5251 6.49803 18.5264 7.15735C18.5267 7.47545 18.4001 7.78058 18.1746 8.0053C17.9492 8.23002 17.6434 8.35584 17.3248 8.35496Z" fill="#E3E3E3"/>
</svg>
