<svg width="166" height="20" viewBox="0 0 166 20" fill="none" xmlns="http://www.w3.org/2000/svg">
<path d="M2.42383 18.8831V14.9213M2.42383 14.9213L9.25545 4.75195L12.2189 4.75195V14.9213M2.42383 14.9213H12.2189M12.2189 18.8831V14.9213" stroke="white" stroke-width="1.24778"/>
<path d="M53.0508 4.15918V14.8138M53.0508 14.8138V18.2928C57.3985 18.2928 62.059 18.6345 62.059 16.5844C62.059 14.7827 57.336 14.8138 53.0508 14.8138ZM64.6552 4.15918V18.883" stroke="white" stroke-width="1.24778"/>
<path d="M71.3438 2.39062L72.9147 3.62622L74.6734 2.62346" stroke="white" stroke-width="1.24778" stroke-linejoin="bevel"/>
<path d="M94.6035 18.8929V4.79297L101.903 4.79297V18.8929" stroke="white" stroke-width="1.24778"/>
<path d="M40.1992 18.8831V9.26965M40.1992 9.26965V4.7207C43.3499 4.7207 49.7448 4.70857 49.7448 6.96485C49.7448 9.22112 43.3187 9.26965 40.1992 9.26965Z" stroke="white" stroke-width="1.24778"/>
<path d="M106.207 18.8933V9.2799M106.207 9.2799V4.73096C109.358 4.73096 115.753 4.71883 115.753 6.9751C115.753 9.23137 109.326 9.2799 106.207 9.2799Z" stroke="white" stroke-width="1.24778"/>
<path d="M28.9688 11.4901L28.9688 4.75204L36.2995 4.75204M28.9688 11.4901L28.9688 18.2905C31.7451 18.2905 36.2995 18.6336 36.2995 15.0462C36.2995 11.4589 31.7139 11.4901 28.9688 11.4901Z" stroke="white" stroke-width="1.24778"/>
<path d="M154.809 4.79297H159.16M163.543 4.79297H159.16M159.16 4.79297V18.8929" stroke="white" stroke-width="1.24778"/>
<path d="M25.0436 12.2171C24.7307 14.1926 23.8983 15.8665 22.8375 16.9806C21.7744 18.097 20.5323 18.6089 19.3548 18.4224C18.1774 18.2359 17.1542 17.3652 16.4882 15.9749C15.8235 14.5876 15.5492 12.7384 15.862 10.7629C16.1749 8.78741 17.0073 7.1135 18.0681 5.99941C19.1312 4.88303 20.3733 4.37112 21.5508 4.55762C22.7283 4.74411 23.7514 5.6148 24.4174 7.00504C25.0821 8.39242 25.3565 10.2416 25.0436 12.2171Z" stroke="white" stroke-width="1.24778"/>
<path d="M127.34 11.0141C127.549 13.0032 127.179 14.8355 126.442 16.1862C125.704 17.5397 124.637 18.3557 123.451 18.4803C122.266 18.6049 121.052 18.0287 120.049 16.8582C119.048 15.6901 118.304 13.9749 118.095 11.9858C117.886 9.99665 118.257 8.16434 118.993 6.81365C119.731 5.46017 120.798 4.64422 121.984 4.51961C123.17 4.39499 124.383 4.97121 125.386 6.14169C126.388 7.30978 127.131 9.02495 127.34 11.0141Z" stroke="white" stroke-width="1.24778"/>
<path fill-rule="evenodd" clip-rule="evenodd" d="M75.9985 4.15918L69.8962 16.3125V4.15921H68.6484V18.9455L68.6486 18.9455H69.9704L76.0728 6.79213V18.9455H77.3205V4.15921L77.3204 4.15918H75.9985Z" fill="white"/>
<path d="M139.179 4.7207H131.318L131.318 14.8901M139.179 18.2592H131.318L131.318 14.8901M131.318 14.8901H135.076H139.179" stroke="white" stroke-width="1.24778"/>
<path fill-rule="evenodd" clip-rule="evenodd" d="M150.741 4.15967L145.004 14.1273H143.39V4.16977H142.143V14.7512V18.8835H143.39V15.3751H145.166L150.117 18.8733H152.279L146.189 14.5697L152.181 4.15967H150.741Z" fill="white"/>
</svg>
