<svg width="32" height="33" viewBox="0 0 32 33" fill="none" xmlns="http://www.w3.org/2000/svg">
<path d="M23.4601 28.5071H23.4228C18.3006 28.381 13.4125 26.3357 9.7268 22.7764C6.16616 19.094 4.11972 14.2078 3.99331 9.08706C3.98577 8.36973 4.26742 7.67954 4.7748 7.1724L8.39347 3.5564C8.91413 3.03589 9.75813 3.03589 10.2788 3.5564L15.6121 8.88973C16.1326 9.4104 16.1326 10.2544 15.6121 10.7751L13.4841 12.8991C13.8788 14.3736 14.6058 15.7383 15.6095 16.8884C16.7575 17.8924 18.1204 18.6199 19.5935 19.0151L21.7268 16.8897C22.2475 16.3692 23.0915 16.3692 23.6121 16.8897L28.9455 22.2231C29.466 22.7437 29.466 23.5877 28.9455 24.1084L25.3268 27.7257C24.8334 28.2243 24.1616 28.5055 23.4601 28.5071ZM9.33347 6.38573H9.3268L6.66013 9.05773C6.76886 13.4826 8.53523 17.7053 11.6095 20.8897C14.794 23.9629 19.0159 25.7291 23.4401 25.8391L26.1161 23.1657L22.6601 19.7191L20.9361 21.4417C20.6895 21.6911 20.3535 21.8318 20.0028 21.8324C19.9091 21.8324 19.8157 21.8226 19.7241 21.8031C17.5023 21.3116 15.4393 20.2705 13.7241 18.7751C12.2287 17.0599 11.1876 14.9969 10.6961 12.7751C10.6034 12.3334 10.7404 11.8748 11.0601 11.5564L12.7828 9.8324L9.33347 6.38573Z" fill="#E3E3E3"/>
</svg>
