<svg width="170" height="133" viewBox="0 0 170 133" fill="none" xmlns="http://www.w3.org/2000/svg">
<path fill-rule="evenodd" clip-rule="evenodd" d="M108.837 91.117C109.903 90.4924 111.286 89.6427 112.867 88.6715C116.172 86.6405 120.343 84.0783 124.284 81.9324C127.192 80.3488 129.921 79.0227 132.031 78.3226C133.093 77.9703 133.942 77.7959 134.554 77.7993C135.171 77.8027 135.361 77.9766 135.433 78.1103C135.471 78.1802 135.539 78.4305 135.062 79.0545C134.618 79.6371 133.85 80.3323 132.816 81.1122C130.758 82.6638 127.819 84.422 124.815 86.1434C123.859 86.6913 122.896 87.2358 121.956 87.7675C119.962 88.8947 118.07 89.9643 116.565 90.8862C115.46 91.5633 114.526 92.1828 113.9 92.7054C113.592 92.9618 113.315 93.2305 113.135 93.502C112.976 93.7428 112.74 94.2326 113.046 94.7219C113.246 95.041 113.576 95.1307 113.757 95.1607C113.959 95.1946 114.18 95.1877 114.391 95.1663C114.818 95.1229 115.368 95.0008 116 94.827C117.274 94.4768 119.01 93.8804 121.041 93.1317C124.045 92.024 127.74 90.5649 131.612 89.0358C132.978 88.4962 134.367 87.9479 135.755 87.4033C141.088 85.3105 146.416 83.2707 150.514 81.9595C152.568 81.3025 154.282 80.8385 155.522 80.6377C156.147 80.5365 156.607 80.5098 156.912 80.5405C156.999 80.5492 157.06 80.5609 157.101 80.5716C157.098 80.5809 157.094 80.5914 157.089 80.6031C157.032 80.7326 156.894 80.9287 156.624 81.1879C156.09 81.7022 155.201 82.311 154.026 82.9838C151.689 84.3214 148.392 85.8152 145.016 87.2241C141.645 88.6303 138.221 89.9414 135.64 90.9149C135.071 91.1296 134.541 91.3284 134.062 91.5083L134.06 91.509C133.456 91.7355 132.934 91.9318 132.513 92.0916C132.136 92.235 131.833 92.3522 131.624 92.4375C131.522 92.4794 131.43 92.5183 131.361 92.5513C131.33 92.566 131.281 92.5897 131.234 92.6193C131.215 92.6309 131.16 92.6653 131.103 92.7203C131.076 92.746 131.015 92.8081 130.964 92.9048C130.913 93.0018 130.831 93.2189 130.926 93.4774C131.038 93.7849 131.298 93.887 131.39 93.9145C131.492 93.9453 131.577 93.9456 131.609 93.9452C131.681 93.9444 131.739 93.9328 131.759 93.9288C131.811 93.9184 131.862 93.9036 131.899 93.8925C131.979 93.8682 132.084 93.8321 132.206 93.7886C132.453 93.7003 132.809 93.5669 133.255 93.3976C133.729 93.2172 134.314 92.9926 134.988 92.7336L135.005 92.7269C135.592 92.5016 136.245 92.2504 136.954 91.9797C140.022 90.8063 144.137 89.2538 148.355 87.7824C152.577 86.3096 156.885 84.9244 160.343 84.0809C162.074 83.6585 163.568 83.3784 164.719 83.286C165.295 83.2398 165.762 83.2427 166.119 83.2893C166.377 83.3231 166.541 83.3753 166.639 83.4223C166.581 83.4922 166.493 83.5793 166.367 83.6824C165.823 84.1285 164.821 84.6765 163.435 85.299C160.691 86.5318 156.695 87.9472 152.567 89.3514C151.345 89.7672 150.11 90.182 148.896 90.5901L148.892 90.5913L148.892 90.5914C146.025 91.5553 143.267 92.482 141.032 93.2978C139.443 93.878 138.091 94.4116 137.139 94.871C136.668 95.0985 136.262 95.3235 135.968 95.5432C135.823 95.6518 135.673 95.783 135.558 95.9387C135.447 96.0888 135.307 96.3476 135.355 96.6735C135.399 96.971 135.575 97.1844 135.767 97.3146C135.941 97.4326 136.134 97.4888 136.292 97.5195C136.611 97.5811 137.007 97.5783 137.425 97.5466C138.276 97.4817 139.446 97.2766 140.802 96.9904C143.027 96.5211 145.848 95.8136 148.78 95.0782L148.78 95.0782C149.434 94.914 150.094 94.7485 150.754 94.5839C154.387 93.6783 158.026 92.8007 160.843 92.3178C162.256 92.0755 163.427 91.9389 164.274 91.9397C164.7 91.9401 165.004 91.9757 165.201 92.0303C165.24 92.0411 165.27 92.0514 165.294 92.0606C165.228 92.1582 165.081 92.3107 164.797 92.5074C164.181 92.9339 163.161 93.4077 161.813 93.9105C159.133 94.9091 155.367 95.9465 151.498 96.9342C149.699 97.3934 147.87 97.8441 146.126 98.2736H146.126C144.149 98.7604 142.283 99.22 140.698 99.6339C139.201 100.025 137.919 100.384 136.996 100.699C136.538 100.855 136.143 101.008 135.847 101.158C135.7 101.232 135.552 101.318 135.427 101.419C135.324 101.502 135.123 101.682 135.057 101.972C134.994 102.249 135.07 102.536 135.274 102.746C135.437 102.914 135.636 102.984 135.759 103.018C136.016 103.089 136.336 103.101 136.647 103.094C137.296 103.079 138.212 102.972 139.273 102.82C140.36 102.663 141.669 102.448 143.065 102.219L143.066 102.219H143.067C144.368 102.005 145.744 101.779 147.085 101.576C149.92 101.149 152.681 100.814 154.661 100.841C155.667 100.855 156.377 100.963 156.785 101.14C156.981 101.225 157.042 101.298 157.057 101.322L157.057 101.323C157.061 101.328 157.079 101.354 157.062 101.444C157.054 101.456 157.035 101.48 156.996 101.518C156.912 101.599 156.771 101.704 156.554 101.827C156.12 102.074 155.475 102.343 154.626 102.627C152.934 103.194 150.545 103.784 147.675 104.379C141.94 105.568 134.373 106.759 126.821 107.819C119.272 108.879 111.753 109.807 106.119 110.47C103.303 110.801 100.958 111.066 99.3183 111.248C98.4983 111.339 97.8543 111.41 97.4155 111.458C97.1961 111.481 97.0281 111.499 96.9147 111.511L96.8413 111.519C89.0479 112.1 81.9227 112.098 76.1233 111.691C70.1148 111.268 65.6087 110.414 63.2461 109.364C62.0739 108.843 59.9088 107.448 57.2111 105.633C56.3189 105.033 55.373 104.39 54.3949 103.726L54.3943 103.725C52.4495 102.404 50.3769 100.995 48.3426 99.661C45.2863 97.6563 42.2761 95.7922 39.8595 94.6124C38.6565 94.025 37.5587 93.5861 36.6542 93.396C35.816 93.2198 34.8336 93.1935 34.2352 93.8852C33.5965 94.6239 33.8911 95.5519 34.2863 96.2396C34.7091 96.975 35.437 97.7964 36.3213 98.6491C38.1019 100.366 40.6925 102.375 43.3085 104.318C44.4059 105.133 45.5053 105.934 46.5576 106.702L46.5582 106.702C48.0358 107.779 49.4213 108.79 50.5794 109.675C50.9969 109.994 51.3794 110.293 51.7214 110.569C50.6322 110.025 49.2469 109.282 47.6404 108.395C45.4546 107.189 42.8872 105.733 40.1298 104.169L40.1288 104.169C37.8436 102.873 35.4281 101.503 32.9911 100.14C27.6304 97.1412 22.186 94.1882 17.911 92.1988C15.778 91.2062 13.9065 90.4393 12.4691 90.0305C11.7547 89.8274 11.1056 89.7001 10.5657 89.694C10.0594 89.6883 9.44302 89.7881 9.06637 90.2791C8.75174 90.6892 8.69288 91.1671 8.80121 91.6227C8.90247 92.0486 9.1477 92.4592 9.44714 92.8405C10.0485 93.6061 11.0282 94.4505 12.213 95.3295C14.5969 97.0979 18.0074 99.1471 21.4633 101.16C22.3743 101.69 23.2884 102.218 24.1897 102.739C26.7249 104.203 29.1568 105.608 31.1222 106.84C32.4552 107.676 33.5473 108.416 34.2999 109.028C34.4713 109.168 34.6203 109.297 34.7478 109.415C33.923 109.157 32.7289 108.648 31.2548 107.952C28.8967 106.838 25.915 105.29 22.7622 103.654L22.7588 103.652C21.8799 103.196 20.9876 102.733 20.0918 102.271C15.9973 100.157 11.831 98.0551 8.59897 96.7234C6.99018 96.0604 5.56795 95.5689 4.48355 95.3727C3.94773 95.2758 3.42896 95.2379 2.98859 95.3276C2.52414 95.4221 2.05591 95.6858 1.86329 96.2362C1.69029 96.7305 1.81764 97.2202 2.02519 97.6228C2.23372 98.0274 2.56601 98.4318 2.96387 98.8283C3.7629 99.6244 4.95186 100.509 6.37011 101.435C7.4653 102.149 8.71706 102.901 10.0661 103.668C9.82933 103.594 9.59745 103.524 9.3709 103.459C7.98117 103.059 6.73541 102.802 5.77844 102.798C5.30225 102.796 4.83204 102.855 4.43779 103.041C4.01304 103.241 3.68223 103.589 3.56556 104.09C3.45282 104.574 3.58018 105.037 3.79992 105.433C4.01721 105.824 4.34942 106.199 4.741 106.554C5.52507 107.266 6.66815 108.01 8.01422 108.761C10.7158 110.268 14.391 111.891 18.0638 113.43C19.6486 114.094 21.2288 114.741 22.7367 115.358C24.7457 116.18 26.6259 116.95 28.217 117.637C29.0013 117.976 29.7051 118.291 30.3105 118.578C30.1151 118.518 29.9105 118.455 29.6976 118.387C28.3409 117.955 26.7109 117.385 24.9588 116.772C23.8724 116.393 22.7389 115.996 21.5947 115.606C18.6312 114.596 15.6052 113.634 13.2715 113.175C12.1146 112.948 11.0613 112.83 10.2495 112.922C9.84273 112.969 9.43507 113.074 9.09942 113.297C8.73862 113.537 8.49181 113.895 8.42178 114.349C8.34353 114.856 8.55094 115.317 8.81739 115.684C9.08843 116.057 9.48224 116.422 9.94967 116.776C10.8881 117.487 12.2491 118.25 13.9059 119.032C17.2291 120.601 21.8679 122.308 27.0243 123.886C37.3231 127.038 49.8229 129.716 58.192 129.716C70.146 129.716 84.7014 129.029 98.4265 128.381H98.4267H98.4277C103.698 128.133 108.846 127.89 113.677 127.694L113.619 126.28C108.766 126.477 103.603 126.721 98.3247 126.97L98.3227 126.97H98.3225C84.6094 127.617 70.1099 128.301 58.192 128.301C50.036 128.301 37.6972 125.673 27.4408 122.534C22.3196 120.967 17.7517 119.282 14.5135 117.754C12.8897 116.987 11.6314 116.273 10.8087 115.65C10.3956 115.337 10.1234 115.07 9.96755 114.855C9.82243 114.655 9.82473 114.567 9.82485 114.563V114.562C9.83079 114.525 9.83865 114.506 9.88714 114.474C9.96139 114.425 10.1192 114.361 10.411 114.328C10.9965 114.261 11.8725 114.342 12.9968 114.563C15.2252 115.001 18.1681 115.934 21.1355 116.945C22.2517 117.325 23.3732 117.717 24.4559 118.096C26.2265 118.715 27.8938 119.298 29.2663 119.735C30.3703 120.086 31.3286 120.357 32.0233 120.476C32.3576 120.533 32.7034 120.568 32.9933 120.525C33.1379 120.503 33.3451 120.451 33.5286 120.304C33.745 120.131 33.8603 119.878 33.8603 119.61C33.8603 119.327 33.7279 119.109 33.6298 118.981C33.5243 118.843 33.3913 118.721 33.2589 118.615C32.9925 118.402 32.6298 118.179 32.2104 117.95C31.3649 117.488 30.1765 116.942 28.7815 116.339C27.1851 115.649 25.2769 114.868 23.2515 114.039L23.2509 114.039C21.7432 113.422 20.1707 112.778 18.6138 112.125C14.9414 110.587 11.3323 108.991 8.70751 107.526C7.39044 106.791 6.35983 106.111 5.69683 105.509C5.36489 105.207 5.15523 104.952 5.04196 104.748C4.93113 104.548 4.93922 104.448 4.94815 104.41L4.94898 104.406C4.95356 104.386 4.95914 104.36 5.04442 104.32C5.16525 104.263 5.39348 104.211 5.77238 104.213C6.52559 104.216 7.61662 104.426 8.97664 104.818C11.6778 105.597 15.2169 107.024 18.7596 108.585C22.2951 110.142 25.8045 111.818 28.44 113.082C28.6097 113.163 28.7758 113.243 28.9382 113.321C30.034 113.847 30.9576 114.29 31.6322 114.604C32.0178 114.783 32.3333 114.925 32.5572 115.017C32.665 115.061 32.7731 115.102 32.865 115.129C32.9023 115.14 32.9844 115.164 33.0797 115.17C33.119 115.173 33.2376 115.179 33.3761 115.132C33.5485 115.072 33.8025 114.899 33.8528 114.559C33.8952 114.273 33.7527 114.074 33.7241 114.034C33.6756 113.966 33.6251 113.92 33.6 113.898C33.5458 113.85 33.4889 113.811 33.4503 113.787C33.3666 113.732 33.2577 113.671 33.1381 113.607C32.8942 113.476 32.5432 113.301 32.1084 113.089C31.3264 112.709 30.2434 112.197 28.9575 111.589L28.9573 111.589L28.5071 111.376C25.5344 109.971 21.5874 108.099 17.682 106.121C13.7717 104.14 9.92554 102.063 7.14745 100.251C5.75365 99.3415 4.6619 98.5197 3.96725 97.8277C3.61827 97.4799 3.40046 97.1951 3.28761 96.9762C3.23265 96.8697 3.21154 96.7958 3.20472 96.7511C3.2036 96.7436 3.20288 96.7372 3.20246 96.7317C3.21816 96.7264 3.24078 96.7202 3.27252 96.7137C3.4502 96.6775 3.75913 96.6796 4.23 96.7646C5.15896 96.9328 6.466 97.3752 8.0567 98.0308C11.2237 99.3358 15.3374 101.409 19.439 103.527C20.3243 103.984 21.2091 104.443 22.0832 104.897L22.0899 104.9C25.2471 106.539 28.2622 108.103 30.6469 109.23C32.1646 109.947 33.4653 110.505 34.4001 110.789C34.8516 110.926 35.2993 111.026 35.6682 111.005C35.8535 110.995 36.1118 110.95 36.3359 110.774C36.595 110.571 36.699 110.282 36.699 110.01C36.699 109.567 36.4439 109.179 36.2126 108.899C35.9579 108.59 35.6071 108.266 35.1976 107.932C34.3747 107.263 33.2222 106.485 31.8779 105.643C29.8888 104.395 27.4226 102.971 24.8795 101.502L24.8789 101.502C23.9827 100.984 23.0771 100.461 22.1793 99.9383C18.7159 97.9213 15.3718 95.9093 13.0604 94.1945C11.8976 93.3319 11.0445 92.5792 10.5647 91.9683C10.3236 91.6614 10.2162 91.4389 10.1823 91.2964C10.1622 91.212 10.1703 91.1763 10.1819 91.1556C10.2068 91.1437 10.3025 91.1059 10.5496 91.1087C10.904 91.1127 11.4123 91.2012 12.0796 91.391C13.4057 91.7681 15.195 92.4962 17.3106 93.4807C21.5327 95.4455 26.9361 98.3752 32.2966 101.373C34.714 102.726 37.1269 104.094 39.414 105.391H39.4142C42.1826 106.961 44.7668 108.427 46.953 109.633C48.9513 110.736 50.6403 111.635 51.8538 112.209C52.4554 112.493 52.9682 112.711 53.3545 112.831C53.5394 112.889 53.7478 112.941 53.9435 112.946C54.0692 112.95 54.6043 112.94 54.8014 112.417C54.8993 112.156 54.8531 111.913 54.7998 111.756C54.7452 111.596 54.6591 111.451 54.5737 111.329C54.402 111.084 54.1519 110.818 53.8644 110.546C53.2831 109.995 52.4384 109.313 51.4434 108.553C50.2777 107.661 48.8645 106.631 47.3713 105.542C46.32 104.775 45.2289 103.98 44.1565 103.183C41.5388 101.239 39.0158 99.2788 37.3081 97.6323C36.4484 96.8032 35.8385 96.094 35.5179 95.5363C35.3577 95.2576 35.2975 95.0633 35.2856 94.9433C35.2762 94.8483 35.2969 94.8246 35.3097 94.8098L35.3103 94.8089C35.3458 94.768 35.564 94.6127 36.3614 94.7803C37.0926 94.934 38.0653 95.3117 39.2352 95.8829C41.5646 97.0203 44.5105 98.8411 47.5625 100.843C49.5879 102.171 51.6421 103.567 53.581 104.885L53.5816 104.885C54.5623 105.552 55.5137 106.198 56.417 106.806C59.0732 108.593 61.3564 110.073 62.668 110.656C65.2732 111.814 69.9929 112.678 76.0235 113.102C81.8852 113.514 89.0604 113.515 96.8942 112.934C96.8944 112.937 96.8944 112.937 96.8946 112.937L96.8967 112.936L96.905 112.936L96.9376 112.932L96.9701 112.928C97.2081 112.911 97.4466 112.892 97.6856 112.874L97.684 112.851C98.1183 112.804 98.723 112.738 99.4756 112.654C101.118 112.472 103.466 112.207 106.286 111.875C111.925 111.211 119.456 110.282 127.019 109.22C134.578 108.159 142.183 106.962 147.964 105.764C150.851 105.165 153.305 104.562 155.078 103.968C155.962 103.672 156.705 103.369 157.256 103.056C157.532 102.9 157.782 102.728 157.982 102.536C158.177 102.348 158.369 102.098 158.441 101.78C158.537 101.363 158.493 100.942 158.26 100.572C158.04 100.221 157.7 99.9937 157.351 99.8425C156.67 99.547 155.72 99.4407 154.681 99.4266C152.571 99.3975 149.704 99.7506 146.873 100.178C145.472 100.389 144.098 100.615 142.81 100.827H142.809C141.823 100.989 140.887 101.143 140.027 101.276C140.355 101.188 140.699 101.096 141.058 101.002C142.648 100.587 144.488 100.134 146.446 99.6521L146.447 99.6517C148.186 99.2237 150.018 98.7728 151.851 98.3047C155.718 97.3174 159.551 96.2637 162.31 95.2356C163.68 94.725 164.838 94.2015 165.607 93.6693C165.986 93.4066 166.333 93.0999 166.542 92.7378C166.773 92.3374 166.836 91.8549 166.589 91.3885C166.363 90.964 165.939 90.7666 165.581 90.6674C165.207 90.5635 164.758 90.5254 164.275 90.5249C163.304 90.524 162.037 90.6776 160.603 90.9235C157.725 91.4168 154.035 92.3076 150.41 93.2115C149.743 93.3777 149.079 93.5443 148.422 93.7092C145.491 94.4443 142.704 95.1431 140.508 95.6063C139.479 95.8235 138.599 95.9844 137.906 96.0738C138.784 95.6615 140.024 95.1726 141.521 94.6262C143.737 93.817 146.466 92.8999 149.325 91.9391L149.325 91.9389C150.545 91.529 151.788 91.1112 153.025 90.6903C157.146 89.2888 161.203 87.8533 164.018 86.5889C165.412 85.9627 166.567 85.3506 167.269 84.7749C167.606 84.4983 167.943 84.1481 168.072 83.7218C168.144 83.4874 168.152 83.2274 168.06 82.969C167.97 82.718 167.805 82.5244 167.624 82.3785C167.261 82.0853 166.782 81.9492 166.303 81.8866C165.811 81.8222 165.236 81.8252 164.605 81.8758C163.343 81.9771 161.765 82.2774 160.005 82.7067C158.42 83.0933 156.667 83.5896 154.833 84.1531C155.99 83.485 156.965 82.8266 157.61 82.2059C157.94 81.8887 158.226 81.542 158.389 81.1699C158.561 80.7783 158.611 80.3159 158.378 79.8725C158.094 79.3288 157.497 79.1773 157.054 79.1328C156.566 79.0839 155.963 79.1329 155.294 79.2413C153.946 79.4596 152.15 79.9504 150.08 80.6125C145.933 81.9396 140.564 83.9956 135.235 86.0868C133.84 86.634 132.449 87.1836 131.081 87.7235L131.074 87.7264C127.207 89.2533 123.536 90.7032 120.548 91.8049C118.523 92.5515 116.834 93.13 115.623 93.4632C115.405 93.5231 115.206 93.5739 115.027 93.6159C115.569 93.1942 116.346 92.6807 117.308 92.0916C118.792 91.1828 120.646 90.1344 122.626 89.015C123.572 88.4803 124.547 87.9294 125.523 87.3698C128.522 85.6508 131.534 83.8526 133.672 82.2406C134.735 81.4387 135.628 80.6503 136.192 79.911C136.725 79.2132 137.15 78.3034 136.682 77.4385C136.249 76.6375 135.4 76.3893 134.562 76.3846C133.718 76.3799 132.695 76.6114 131.583 76.9802C129.347 77.7223 126.525 79.0996 123.603 80.6909C119.633 82.8525 115.379 85.4657 112.058 87.5061C110.496 88.4654 109.141 89.298 108.118 89.8975C107.643 90.1756 107.174 90.4549 106.706 90.7338C103.941 92.3798 101.199 94.0123 97.5183 95.3094C93.2256 96.8224 87.632 97.8839 79.2795 97.8839V99.2986C87.7567 99.2986 93.5158 98.2208 97.9916 96.6432C101.815 95.2957 104.684 93.5869 107.449 91.9394C107.913 91.6629 108.375 91.3881 108.837 91.117ZM136.137 101.655C136.129 101.653 136.131 101.652 136.138 101.655L136.137 101.655ZM157.178 80.5989C157.178 80.5989 157.177 80.5986 157.176 80.5978C157.177 80.5985 157.178 80.5989 157.178 80.5989ZM136.321 102.518C136.31 102.528 136.307 102.529 136.319 102.519L136.321 102.518ZM113.991 93.7654C113.98 93.7636 113.982 93.763 113.992 93.7655L113.991 93.7654ZM114.299 94.3148C114.297 94.3205 114.295 94.3235 114.295 94.3236C114.295 94.3237 114.296 94.3208 114.299 94.3148ZM3.17116 96.7463C3.17159 96.7465 3.17467 96.7448 3.17897 96.7412C3.17287 96.7442 3.17073 96.746 3.17116 96.7463ZM32.5004 119.838L32.4994 119.836C32.5028 119.841 32.5036 119.842 32.5004 119.838ZM35.6045 109.591C35.6043 109.591 35.6023 109.591 35.5984 109.592C35.6027 109.591 35.6045 109.591 35.6045 109.591Z" fill="#1D1D1D"/>
<path d="M22.8535 31.169V24.5357M22.8535 24.5357L34.5237 7.50879L39.5862 7.50879V24.5357M22.8535 24.5357H39.5862M39.5862 31.169V24.5357" stroke="#1D1D1D" stroke-width="2.00292"/>
<path d="M109.288 6.97595V24.7912M109.288 24.7912V30.6085C116.715 30.6085 124.677 31.1798 124.677 27.7518C124.677 24.7393 116.608 24.7912 109.288 24.7912ZM129.111 6.97595V31.169" stroke="#1D1D1D" stroke-width="2.00292"/>
<path d="M140.59 3.45874L143.273 5.56947L146.278 3.85648" stroke="#1D1D1D" stroke-width="2.00292" stroke-linejoin="bevel"/>
<path d="M87.4404 31.169V15.1084M87.4404 15.1084V7.50879C92.8226 7.50879 103.747 7.48853 103.747 11.2579C103.747 15.0274 92.7693 15.1084 87.4404 15.1084Z" stroke="#1D1D1D" stroke-width="2.00292"/>
<path d="M68.2026 19.0023L68.2026 7.49193L80.7255 7.49194M68.2026 19.0023L68.2026 30.6192C72.9453 30.6192 80.7255 31.2053 80.7255 25.0772C80.7255 18.949 72.892 19.0023 68.2026 19.0023Z" stroke="#1D1D1D" stroke-width="2.00292"/>
<path d="M61.6332 20.2218C61.1182 23.4733 59.7144 26.2263 57.9109 28.0568C56.1058 29.889 53.9689 30.7423 51.9144 30.4169C49.8599 30.0915 48.0912 28.6196 46.9406 26.3193C45.7911 24.0211 45.3067 20.969 45.8217 17.7175C46.3366 14.466 47.7405 11.713 49.544 9.88252C51.3491 8.05037 53.486 7.19706 55.5405 7.52246C57.595 7.84786 59.3636 9.31975 60.5142 11.62C61.6638 13.9183 62.1482 16.9703 61.6332 20.2218Z" stroke="#1D1D1D" stroke-width="2.00292"/>
<path fill-rule="evenodd" clip-rule="evenodd" d="M148.603 6.97595L138.052 27.1017V6.97591H136.049V31.1688H138.182L148.732 11.0432V31.169H150.735V6.97595H148.603Z" fill="#1D1D1D"/>
<path d="M27.9487 63.6101V39.95L40.4183 39.95V63.6101" stroke="#1D1D1D" stroke-width="2.00292"/>
<path d="M47.7729 63.6101V47.5496M47.7729 47.5496V39.95C53.1551 39.95 64.0793 39.9297 64.0793 43.6991C64.0793 47.4685 53.1018 47.5496 47.7729 47.5496Z" stroke="#1D1D1D" stroke-width="2.00292"/>
<path d="M130.662 40.1501H138.101M145.593 40.1501H138.101M138.101 40.1501V63.639" stroke="#1D1D1D" stroke-width="2.00292"/>
<path d="M83.9341 50.6767C84.2767 53.9365 83.6323 56.9464 82.3637 59.1724C81.0941 61.4002 79.2504 62.7739 77.18 62.9915C75.1095 63.2091 73.0205 62.2487 71.3155 60.3336C69.6118 58.42 68.3557 55.6099 68.0131 52.3501C67.6705 49.0903 68.3148 46.0804 69.5834 43.8544C70.853 41.6266 72.6968 40.2529 74.7672 40.0353C76.8376 39.8177 78.9267 40.7781 80.6317 42.6932C82.3354 44.6068 83.5914 47.4169 83.9341 50.6767Z" stroke="#1D1D1D" stroke-width="2.00292"/>
<path d="M104.078 39.9684H90.6949L90.6948 57.2701M104.078 63.002H90.6949L90.6948 57.2701M90.6948 57.2701H97.0929H104.078" stroke="#1D1D1D" stroke-width="2.00292"/>
<path fill-rule="evenodd" clip-rule="evenodd" d="M123.912 39.4158L114.097 55.818H111.228V39.4329H109.225V56.8195V63.6095H111.228V57.821H114.356L122.849 63.5929H126.412L116.009 56.5226L126.246 39.4158H123.912Z" fill="#1D1D1D"/>
</svg>
