<svg width="461" height="43" viewBox="0 0 461 43" fill="none" xmlns="http://www.w3.org/2000/svg">
<g clip-path="url(#clip0_0_108)">
<path d="M19.8437 22.7658C19.2789 26.3316 17.7765 29.3532 15.8615 31.3642C13.9427 33.3793 11.7005 34.3033 9.57511 33.9667C7.44968 33.6301 5.6028 32.0584 4.40058 29.5489C3.20083 27.0446 2.70558 23.7067 3.27036 20.1408C3.83514 16.5749 5.33763 13.5534 7.25254 11.5424C9.17139 9.52722 11.4135 8.60319 13.539 8.93983C15.6644 9.27646 17.5113 10.8481 18.7135 13.3576C19.9133 15.8619 20.4085 19.1999 19.8437 22.7658Z" stroke="black" stroke-width="2.25234"/>
<path fill-rule="evenodd" clip-rule="evenodd" d="M84.2165 8.2207L73.2013 30.1584V8.22078H70.949V34.911L70.9496 34.9112H73.3352L84.3504 12.9734V34.911H86.6028V8.22078L86.6024 8.2207H84.2165Z" fill="black"/>
<path d="M48.8755 34.7985V17.4455M48.8755 17.4455V9.23438C54.5627 9.23438 66.1059 9.21248 66.1059 13.2852C66.1059 17.358 54.5063 17.4455 48.8755 17.4455Z" stroke="black" stroke-width="2.25234"/>
<path d="M24.3257 34.7987V27.6474M24.3257 27.6474L36.6573 9.29089L42.0066 9.29089V27.6474M24.3257 27.6474H42.0066M42.0066 34.7987V27.6474" stroke="black" stroke-width="2.25234"/>
<rect x="90" y="32" width="3" height="3" fill="black"/>
</g>
<path fill-rule="evenodd" clip-rule="evenodd" d="M123.535 18.3131L129.839 8.2207H132.495L124.854 20.4526L133.769 34.9117H131.123L123.522 22.5843L115.822 34.9112H113.166L122.203 20.4448L114.666 8.22132H117.312L123.535 18.3131Z" fill="black"/>
<path d="M185.715 21.4535L185.715 9.29081L198.947 9.29081M185.715 21.4535L185.715 33.7287C190.726 33.7287 198.947 34.348 198.947 27.8726C198.947 21.3971 190.67 21.4535 185.715 21.4535Z" stroke="black" stroke-width="2.25234"/>
<path d="M152.713 20.5949C153.09 24.1855 152.421 27.4929 151.092 29.931C149.76 32.3741 147.833 33.847 145.693 34.0719C143.553 34.2969 141.362 33.2567 139.552 31.1439C137.745 29.0355 136.402 25.9394 136.025 22.3489C135.648 18.7583 136.317 15.4509 137.646 13.0128C138.978 10.5697 140.904 9.09681 143.045 8.87188C145.185 8.64694 147.375 9.68704 149.186 11.7999C150.993 13.9083 152.336 17.0044 152.713 20.5949Z" stroke="black" stroke-width="2.25234"/>
<path fill-rule="evenodd" clip-rule="evenodd" d="M157.451 8.22046V34.9106H159.704V14.4542L167.344 34.9107H169.75L177.499 14.3904V34.9106H179.751V8.22031L179.75 8.22021H177.421L168.552 31.7074L159.78 8.22046H157.451Z" fill="black"/>
<path fill-rule="evenodd" clip-rule="evenodd" d="M210.547 8.22119H209.674L209.456 9.06695L204.766 27.3109L204.764 27.3188L204.762 27.3266L202.955 34.7989H205.272L206.743 28.7175H218.366L219.716 34.7989H222.023L216.32 9.10336L216.124 8.22119H215.221H210.547ZM211.42 10.4735L207.309 26.4652H217.866L214.317 10.4735H211.42Z" fill="black"/>
<rect x="225" y="32" width="3" height="3" fill="black"/>
<path d="M249.334 17.4636V33.7848C259.357 33.7848 266.564 30.6315 266.564 25.2259C266.564 19.8202 258.287 17.4636 249.334 17.4636ZM249.334 17.4636V9.25244C255.021 9.25244 266.564 9.23055 266.564 13.3033C266.564 17.376 254.965 17.4636 249.334 17.4636Z" stroke="black" stroke-width="2.25234"/>
<path fill-rule="evenodd" clip-rule="evenodd" d="M285.125 8.22021L274.11 30.1579V8.22029H271.857V34.9105L271.858 34.9107H274.244L285.259 12.9729V34.9105H287.511V8.22029L287.511 8.22021H285.125Z" fill="black"/>
<path fill-rule="evenodd" clip-rule="evenodd" d="M346.726 8.22021L335.711 30.1579V8.22029H333.459V34.9105L333.46 34.9107H335.845L346.86 12.9729V34.9105H349.113V8.22029L349.112 8.22021H346.726Z" fill="black"/>
<path fill-rule="evenodd" clip-rule="evenodd" d="M297.153 8.2207H298.266H307.445H308.571V9.34687V34.911H306.319V10.473H299.365C299.342 11.1496 299.303 12.1029 299.234 13.2421C299.094 15.5592 298.83 18.6601 298.337 21.7704C297.846 24.863 297.117 28.0434 296.014 30.4785C294.954 32.8199 293.312 34.9673 290.777 34.9673V32.7149C291.847 32.7149 292.943 31.8005 293.962 29.5493C294.939 27.3917 295.632 24.4486 296.112 21.4176C296.59 18.4044 296.848 15.3816 296.986 13.106C297.054 11.9699 297.093 11.0237 297.115 10.3628C297.125 10.0324 297.132 9.77346 297.136 9.59797C297.137 9.51023 297.139 9.44336 297.139 9.39885L297.14 9.34905L297.14 9.33709L297.14 9.3344L297.14 9.33393L297.14 9.33389L297.153 8.2207Z" fill="black"/>
<path fill-rule="evenodd" clip-rule="evenodd" d="M318.438 8.22119H319.552H328.73H329.856V9.34736V34.9114H327.604V10.4735H320.65C320.627 11.1501 320.588 12.1034 320.519 13.2426C320.379 15.5597 320.115 18.6606 319.622 21.7709C319.132 24.8634 318.402 28.0439 317.299 30.479C316.239 32.8204 314.597 34.9678 312.062 34.9678V32.7154C313.132 32.7154 314.228 31.801 315.247 29.5498C316.225 27.3922 316.917 24.4491 317.398 21.418C317.876 18.4048 318.133 15.3821 318.271 13.1065C318.34 11.9704 318.378 11.0242 318.4 10.3633C318.411 10.0329 318.417 9.77395 318.421 9.59846C318.423 9.51072 318.424 9.44385 318.424 9.39934L318.425 9.34954L318.425 9.33758L318.425 9.33489L318.425 9.33442L318.425 9.33437L318.438 8.22119Z" fill="black"/>
<rect x="352" y="32" width="3" height="3" fill="black"/>
<path d="M443.711 34.7983L443.711 21.4827L443.711 9.34688L454.747 9.34688" stroke="black" stroke-width="2.25234"/>
<path d="M377.828 17.4636V33.7848C387.851 33.7848 395.059 30.6315 395.059 25.2259C395.059 19.8202 386.781 17.4636 377.828 17.4636ZM377.828 17.4636V9.25244C383.515 9.25244 395.059 9.23055 395.059 13.3033C395.059 17.376 383.459 17.4636 377.828 17.4636Z" stroke="black" stroke-width="2.25234"/>
<path d="M417.125 20.5949C417.502 24.1855 416.833 27.4929 415.504 29.931C414.172 32.3741 412.245 33.847 410.105 34.0719C407.965 34.2969 405.775 33.2567 403.964 31.1439C402.157 29.0355 400.814 25.9394 400.437 22.3489C400.06 18.7583 400.729 15.4509 402.058 13.0128C403.39 10.5697 405.317 9.09681 407.457 8.87188C409.597 8.64694 411.788 9.68704 413.598 11.7999C415.405 13.9083 416.748 17.0044 417.125 20.5949Z" stroke="black" stroke-width="2.25234"/>
<path fill-rule="evenodd" clip-rule="evenodd" d="M421.977 20.496V8.2207H424.229V19.3698H435.378V8.2207H437.63V20.496V21.6221V34.911H435.378V21.6221H424.229V34.911H421.977V20.496Z" fill="black"/>
<rect x="458" y="32" width="3" height="3" fill="black"/>
<defs>
<clipPath id="clip0_0_108">
<rect width="93" height="43" fill="white"/>
</clipPath>
</defs>
</svg>
